<?xml version="1.0" standalone="no"?>
<svg xmlns:xlink="http://www.w3.org/1999/xlink" id="wave" style="transform:rotate(180deg); transition: 0.3s" viewBox="0 0 1440 100" version="1.1" xmlns="http://www.w3.org/2000/svg"><defs><linearGradient id="sw-gradient-0" x1="0" x2="0" y1="1" y2="0"><stop stop-color="rgba(255, 249, 234, 1)" offset="0%"/><stop stop-color="rgba(255, 249, 234, 1)" offset="100%"/></linearGradient></defs><path style="transform:translate(0, 0px); opacity:1" fill="url(#sw-gradient-0)" d="M0,30L26.7,25C53.3,20,107,10,160,15C213.3,20,267,40,320,48.3C373.3,57,427,53,480,51.7C533.3,50,587,50,640,56.7C693.3,63,747,77,800,76.7C853.3,77,907,63,960,53.3C1013.3,43,1067,37,1120,28.3C1173.3,20,1227,10,1280,20C1333.3,30,1387,60,1440,71.7C1493.3,83,1547,77,1600,73.3C1653.3,70,1707,70,1760,60C1813.3,50,1867,30,1920,33.3C1973.3,37,2027,63,2080,68.3C2133.3,73,2187,57,2240,53.3C2293.3,50,2347,60,2400,68.3C2453.3,77,2507,83,2560,75C2613.3,67,2667,43,2720,38.3C2773.3,33,2827,47,2880,55C2933.3,63,2987,67,3040,60C3093.3,53,3147,37,3200,28.3C3253.3,20,3307,20,3360,31.7C3413.3,43,3467,67,3520,71.7C3573.3,77,3627,63,3680,61.7C3733.3,60,3787,70,3813,75L3840,80L3840,100L3813.3,100C3786.7,100,3733,100,3680,100C3626.7,100,3573,100,3520,100C3466.7,100,3413,100,3360,100C3306.7,100,3253,100,3200,100C3146.7,100,3093,100,3040,100C2986.7,100,2933,100,2880,100C2826.7,100,2773,100,2720,100C2666.7,100,2613,100,2560,100C2506.7,100,2453,100,2400,100C2346.7,100,2293,100,2240,100C2186.7,100,2133,100,2080,100C2026.7,100,1973,100,1920,100C1866.7,100,1813,100,1760,100C1706.7,100,1653,100,1600,100C1546.7,100,1493,100,1440,100C1386.7,100,1333,100,1280,100C1226.7,100,1173,100,1120,100C1066.7,100,1013,100,960,100C906.7,100,853,100,800,100C746.7,100,693,100,640,100C586.7,100,533,100,480,100C426.7,100,373,100,320,100C266.7,100,213,100,160,100C106.7,100,53,100,27,100L0,100Z"/></svg>